# xmcd
#
# Track frame offsets:
#	150
#	19650
#	39432
#	59377
#	73602
#	85582
#	101840
#	120302
#	134250
#	146160
#	166640
#	180762
#	196335
#	209185
#	223032
#	253145
#
# Disc length: 3387 seconds
#
# Revision: 1
# Processed by: cddbd v1.5.1PL2 Copyright (c) Steve Scherf et al.
# Submitted via: audiograbber 1.83.01
#
DISCID=e30d3910
DTITLE=Various Artist - Sc8442
DYEAR=1900
DGENRE=Country
TTITLE0=Cash, Johnny - Sunday Mornin' Comin' Down
TTITLE1=Williams, Don - Heartbeat In The Darkness
TTITLE2=Williams, Don - Good Ole Boys Like Me
TTITLE3=Rich, Charlie - All Over Me
TTITLE4=Rich, Charlie - I Love My Friend
TTITLE5=Williams, Don - Come Early Morning
TTITLE6=Williams, Don - Til The Rivers All Run Dry
TTITLE7=Cash, Johnny - One On The Right Is On The Left, The
TTITLE8=Rich, Charlie - There Won't E Anymore
TTITLE9=Cash, Johnny - Ballad Of Ira Hayes, The
TTITLE10=Rich, Charlie - Take It On Home
TTITLE11=Cash, Johnny - Oney
TTITLE12=Williams, Don - It Must Be Love
TTITLE13=Rich, Charlie - Rollin' With The Flow
TTITLE14=Cash, Johnny - Ghost Riders In The Sky
TTITLE15=Artist - Data Track
EXTD=
EXTT0=
EXTT1=
EXTT2=
EXTT3=
EXTT4=
EXTT5=
EXTT6=
EXTT7=
EXTT8=
EXTT9=
EXTT10=
EXTT11=
EXTT12=
EXTT13=
EXTT14=
EXTT15=
PLAYORDER=
